<svg width="30" height="30" viewBox="0 0 30 30" fill="none" xmlns="http://www.w3.org/2000/svg">
<path d="M5.625 9.99827L18.85 3.67328C18.9999 3.60152 19.1626 3.56038 19.3287 3.55227C19.4947 3.54416 19.6606 3.56924 19.8168 3.62604C19.973 3.68284 20.1163 3.77022 20.2384 3.88307C20.3604 3.99593 20.4587 4.13198 20.5275 4.28327L23.125 9.99827M7.5 12.4983V9.99828M7.5 17.4983V18.7483M7.5 23.7483V26.2483M5 9.99828H25C26.3807 9.99828 27.5 11.1176 27.5 12.4983V23.7483C27.5 25.129 26.3807 26.2483 25 26.2483H5C3.61929 26.2483 2.5 25.129 2.5 23.7483V12.4983C2.5 11.1176 3.61929 9.99828 5 9.99828Z" stroke="#18A0FB" stroke-width="2" stroke-linecap="round" stroke-linejoin="round"/>
</svg>
