<svg width="30" height="30" viewBox="0 0 30 30" fill="none" xmlns="http://www.w3.org/2000/svg">
<path d="M2.5 26.25C2.49982 24.6327 2.89189 23.0396 3.6426 21.6071C4.3933 20.1746 5.48023 18.9456 6.81019 18.0254C8.14015 17.1052 9.67345 16.5213 11.2786 16.3238C12.8838 16.1262 14.5129 16.321 16.0263 16.8912M26.7225 20.7825C27.2204 20.2846 27.5002 19.6092 27.5002 18.905C27.5002 18.2008 27.2204 17.5254 26.7225 17.0275C26.2246 16.5296 25.5492 16.2498 24.845 16.2498C24.1408 16.2498 23.4654 16.5296 22.9675 17.0275L17.955 22.0425C17.6578 22.3395 17.4403 22.7067 17.3225 23.11L16.2762 26.6975C16.2449 26.8051 16.243 26.9191 16.2708 27.0276C16.2986 27.1362 16.3551 27.2352 16.4343 27.3144C16.5135 27.3937 16.6126 27.4501 16.7211 27.4779C16.8297 27.5058 16.9437 27.5039 17.0512 27.4725L20.6387 26.4263C21.0421 26.3085 21.4092 26.0909 21.7062 25.7938L26.7225 20.7825ZM18.75 10C18.75 13.4518 15.9518 16.25 12.5 16.25C9.04822 16.25 6.25 13.4518 6.25 10C6.25 6.54822 9.04822 3.75 12.5 3.75C15.9518 3.75 18.75 6.54822 18.75 10Z" stroke="#18A0FB" stroke-width="2" stroke-linecap="round" stroke-linejoin="round"/>
</svg>
