<svg width="16" height="16" viewBox="0 0 16 16" fill="#6D7F92" xmlns="http://www.w3.org/2000/svg">
<path fill-rule="evenodd" clip-rule="evenodd" d="M0.888672 8.00022C0.888672 7.5093 1.28664 7.11133 1.77756 7.11133H14.222C14.7129 7.11133 15.1109 7.5093 15.1109 8.00022C15.1109 8.49114 14.7129 8.88911 14.222 8.88911H1.77756C1.28664 8.88911 0.888672 8.49114 0.888672 8.00022Z" />
<path fill-rule="evenodd" clip-rule="evenodd" d="M7.37168 1.14902C7.71881 0.801889 8.28162 0.801889 8.62876 1.14902L14.851 7.37124C15.1981 7.71838 15.1981 8.28119 14.851 8.62832L8.62876 14.8505C8.28162 15.1977 7.71881 15.1977 7.37168 14.8505C7.02454 14.5034 7.02454 13.9406 7.37168 13.5935L12.9654 7.99978L7.37168 2.4061C7.02454 2.05897 7.02454 1.49615 7.37168 1.14902Z" />
</svg>
