<svg width="30" height="31" viewBox="0 0 30 31" fill="none" xmlns="http://www.w3.org/2000/svg">
<rect x="0.25" y="0.75" width="29.5" height="29.5" rx="11.75" stroke="#B2BCC6" stroke-width="0.5"/>
<path d="M19.883 13.8125C19.883 13.8125 19.521 18.3025 19.311 20.1938C19.211 21.0972 18.653 21.6265 17.739 21.6432C15.9997 21.6745 14.2584 21.6765 12.5197 21.6398C11.6404 21.6218 11.0917 21.0858 10.9937 20.1985C10.7824 18.2905 10.4224 13.8125 10.4224 13.8125" stroke="#FC5D2B" stroke-width="1.5" stroke-linecap="round" stroke-linejoin="round"/>
<path d="M20.8053 11.6595H9.5" stroke="#FC5D2B" stroke-width="1.5" stroke-linecap="round" stroke-linejoin="round"/>
<path d="M18.6269 11.66C18.1036 11.66 17.6529 11.29 17.5502 10.7773L17.3882 9.96665C17.2882 9.59265 16.9496 9.33398 16.5636 9.33398H13.7416C13.3556 9.33398 13.0169 9.59265 12.9169 9.96665L12.7549 10.7773C12.6522 11.29 12.2016 11.66 11.6782 11.66" stroke="#FC5D2B" stroke-width="1.5" stroke-linecap="round" stroke-linejoin="round"/>
</svg>
