<svg width="14" height="14" viewBox="0 0 14 14" fill="#FE3745" xmlns="http://www.w3.org/2000/svg">
<path d="M12.8363 2.0148H9.92352V1.53988C9.92352 0.690789 9.23273 0 8.38363 0H5.61472C4.76562 0 4.07484 0.690789 4.07484 1.53988V2.0148H1.16201C0.946135 2.0148 0.773438 2.1875 0.773438 2.40337C0.773438 2.61924 0.946135 2.79194 1.16201 2.79194H1.86431V11.9219C1.86431 13.0674 2.79687 14 3.94243 14H10.0559C11.2015 14 12.134 13.0674 12.134 11.9219V2.79194H12.8363C13.0522 2.79194 13.2249 2.61924 13.2249 2.40337C13.2249 2.1875 13.0522 2.0148 12.8363 2.0148ZM4.85197 1.53988C4.85197 1.11965 5.19449 0.777138 5.61472 0.777138H8.38363C8.80386 0.777138 9.14638 1.11965 9.14638 1.53988V2.0148H4.85197V1.53988ZM11.3569 11.9219C11.3569 12.6386 10.7726 13.2229 10.0559 13.2229H3.94243C3.22574 13.2229 2.64145 12.6386 2.64145 11.9219V2.79194H11.3598V11.9219H11.3569Z" />
<path d="M6.99794 11.8298C7.21381 11.8298 7.3865 11.6571 7.3865 11.4412V4.57363C7.3865 4.35776 7.21381 4.18506 6.99794 4.18506C6.78207 4.18506 6.60938 4.35776 6.60938 4.57363V11.4383C6.60938 11.6542 6.78207 11.8298 6.99794 11.8298Z" />
<path d="M4.46279 11.4007C4.67866 11.4007 4.85136 11.228 4.85136 11.0122V4.99941C4.85136 4.78354 4.67866 4.61084 4.46279 4.61084C4.24692 4.61084 4.07422 4.78354 4.07422 4.99941V11.0122C4.07422 11.228 4.24979 11.4007 4.46279 11.4007Z" />
<path d="M9.53701 11.4007C9.75288 11.4007 9.92557 11.228 9.92557 11.0122V4.99941C9.92557 4.78354 9.75288 4.61084 9.53701 4.61084C9.32113 4.61084 9.14844 4.78354 9.14844 4.99941V11.0122C9.14844 11.228 9.32113 11.4007 9.53701 11.4007Z" />
</svg>
