<svg width="15" height="13" viewBox="0 0 15 13" fill="none" xmlns="http://www.w3.org/2000/svg">
<g clip-path="url(#clip0)">
<path d="M11.9862 6.1368L6.83514 0.98745C6.60911 0.761996 6.24292 0.761996 6.01632 0.98745C5.7903 1.2129 5.7903 1.5791 6.01632 1.80455L10.7588 6.54532L6.01689 11.2861C5.79087 11.5115 5.79087 11.8777 6.01689 12.1038C6.24292 12.3292 6.60968 12.3292 6.83571 12.1038L11.9868 6.95442C12.2094 6.7313 12.2094 6.35935 11.9862 6.1368Z" fill="white"/>
</g>
<g opacity="0.6">
<g clip-path="url(#clip1)">
<path d="M6.22378 6.25396L2.54446 2.57586C2.38301 2.41482 2.12144 2.41482 1.95959 2.57586C1.79814 2.7369 1.79814 2.99846 1.95959 3.1595L5.34707 6.54577L1.95999 9.93203C1.79855 10.0931 1.79855 10.3546 1.95999 10.5161C2.12144 10.6771 2.38342 10.6771 2.54486 10.5161L6.22419 6.83798C6.38319 6.67861 6.38319 6.41293 6.22378 6.25396Z" fill="white"/>
</g>
</g>
<defs>
<clipPath id="clip0">
<rect width="11.4545" height="11.4545" fill="white" transform="translate(3.27283 0.818359)"/>
</clipPath>
<clipPath id="clip1">
<rect width="8.18182" height="8.18182" fill="white" transform="translate(0 2.45508)"/>
</clipPath>
</defs>
</svg>
