<svg width="13" height="12" viewBox="0 0 13 12" fill="none" xmlns="http://www.w3.org/2000/svg">
<path d="M0.167245 6.13664L5.3183 11.286C5.54433 11.5114 5.91053 11.5114 6.13712 11.286C6.36315 11.0605 6.36315 10.6943 6.13712 10.4689L1.39464 5.72811L6.13655 0.987346C6.36258 0.761891 6.36258 0.395695 6.13655 0.16967C5.91053 -0.0557843 5.54376 -0.0557843 5.31773 0.16967L0.166674 5.31901C-0.0559258 5.54214 -0.0559258 5.91409 0.167245 6.13664Z" fill="#6D7F92"/>
<g opacity="0.6">
<g clip-path="url(#clip0)">
<path d="M5.92966 6.20112L9.60899 9.87922C9.77043 10.0403 10.032 10.0403 10.1939 9.87922C10.3553 9.71818 10.3553 9.45661 10.1939 9.29557L6.80637 5.90931L10.1934 2.52305C10.3549 2.36201 10.3549 2.10044 10.1934 1.93899C10.032 1.77796 9.77003 1.77796 9.60858 1.93899L5.92925 5.6171C5.77025 5.77647 5.77025 6.04215 5.92966 6.20112Z" fill="#6D7F92"/>
</g>
</g>
<defs>
<clipPath id="clip0">
<rect width="8.18182" height="8.18182" fill="white" transform="translate(12.1533 10) rotate(-180)"/>
</clipPath>
</defs>
</svg>
